%TF.GenerationSoftware,KiCad,Pcbnew,(5.1.10)-1*%
%TF.CreationDate,2022-10-01T11:38:57+09:00*%
%TF.ProjectId,speedometer,73706565-646f-46d6-9574-65722e6b6963,rev?*%
%TF.SameCoordinates,Original*%
%TF.FileFunction,Soldermask,Bot*%
%TF.FilePolarity,Negative*%
%FSLAX46Y46*%
G04 Gerber Fmt 4.6, Leading zero omitted, Abs format (unit mm)*
G04 Created by KiCad (PCBNEW (5.1.10)-1) date 2022-10-01 11:38:57*
%MOMM*%
%LPD*%
G01*
G04 APERTURE LIST*
%ADD10C,2.000000*%
%ADD11C,1.524000*%
%ADD12R,0.800000X0.900000*%
%ADD13R,0.900000X1.200000*%
%ADD14R,3.500000X3.500000*%
%ADD15R,5.500000X3.500000*%
%ADD16R,2.000000X2.000000*%
%ADD17C,2.000000*%
%ADD18C,1.800000*%
%ADD19R,1.800000X1.800000*%
%ADD20R,1.700000X1.700000*%
%ADD21O,1.700000X1.700000*%
%ADD22R,0.900000X0.800000*%
%ADD23O,1.600000X1.600000*%
%ADD24R,1.600000X1.600000*%
%ADD25C,3.200000*%
G04 APERTURE END LIST*
D10*
%TO.C,H1*%
X22000000Y-3000000D02*
G75*
G03*
X22000000Y-3000000I-2000000J0D01*
G01*
%TO.C,H2*%
X22000000Y-97000000D02*
G75*
G03*
X22000000Y-97000000I-2000000J0D01*
G01*
%TO.C,H3*%
X82000000Y-3000000D02*
G75*
G03*
X82000000Y-3000000I-2000000J0D01*
G01*
%TO.C,H4*%
X82000000Y-97000000D02*
G75*
G03*
X82000000Y-97000000I-2000000J0D01*
G01*
%TO.C,H5*%
X9500000Y-15000000D02*
G75*
G03*
X9500000Y-15000000I-2000000J0D01*
G01*
%TO.C,H6*%
X9500000Y-85000000D02*
G75*
G03*
X9500000Y-85000000I-2000000J0D01*
G01*
%TO.C,H7*%
X94500000Y-15000000D02*
G75*
G03*
X94500000Y-15000000I-2000000J0D01*
G01*
%TO.C,H8*%
X94500000Y-85000000D02*
G75*
G03*
X94500000Y-85000000I-2000000J0D01*
G01*
%TD*%
D11*
%TO.C,U2*%
X43650000Y-18620000D03*
X46190000Y-18620000D03*
X48730000Y-18620000D03*
X51270000Y-18620000D03*
X53810000Y-18620000D03*
X56350000Y-18620000D03*
X56350000Y-3380000D03*
X53810000Y-3380000D03*
X51270000Y-3380000D03*
X48730000Y-3380000D03*
X46190000Y-3380000D03*
X43650000Y-3380000D03*
%TD*%
%TO.C,R13*%
G36*
G01*
X74575000Y-24725000D02*
X74575000Y-25275000D01*
G75*
G02*
X74375000Y-25475000I-200000J0D01*
G01*
X73975000Y-25475000D01*
G75*
G02*
X73775000Y-25275000I0J200000D01*
G01*
X73775000Y-24725000D01*
G75*
G02*
X73975000Y-24525000I200000J0D01*
G01*
X74375000Y-24525000D01*
G75*
G02*
X74575000Y-24725000I0J-200000D01*
G01*
G37*
G36*
G01*
X76225000Y-24725000D02*
X76225000Y-25275000D01*
G75*
G02*
X76025000Y-25475000I-200000J0D01*
G01*
X75625000Y-25475000D01*
G75*
G02*
X75425000Y-25275000I0J200000D01*
G01*
X75425000Y-24725000D01*
G75*
G02*
X75625000Y-24525000I200000J0D01*
G01*
X76025000Y-24525000D01*
G75*
G02*
X76225000Y-24725000I0J-200000D01*
G01*
G37*
%TD*%
D12*
%TO.C,Q1*%
X50000000Y-69500000D03*
X49050000Y-71500000D03*
X50950000Y-71500000D03*
%TD*%
%TO.C,R2*%
G36*
G01*
X48775000Y-75775000D02*
X48775000Y-75225000D01*
G75*
G02*
X48975000Y-75025000I200000J0D01*
G01*
X49375000Y-75025000D01*
G75*
G02*
X49575000Y-75225000I0J-200000D01*
G01*
X49575000Y-75775000D01*
G75*
G02*
X49375000Y-75975000I-200000J0D01*
G01*
X48975000Y-75975000D01*
G75*
G02*
X48775000Y-75775000I0J200000D01*
G01*
G37*
G36*
G01*
X50425000Y-75775000D02*
X50425000Y-75225000D01*
G75*
G02*
X50625000Y-75025000I200000J0D01*
G01*
X51025000Y-75025000D01*
G75*
G02*
X51225000Y-75225000I0J-200000D01*
G01*
X51225000Y-75775000D01*
G75*
G02*
X51025000Y-75975000I-200000J0D01*
G01*
X50625000Y-75975000D01*
G75*
G02*
X50425000Y-75775000I0J200000D01*
G01*
G37*
%TD*%
%TO.C,R4*%
G36*
G01*
X55075000Y-70225000D02*
X55075000Y-70775000D01*
G75*
G02*
X54875000Y-70975000I-200000J0D01*
G01*
X54475000Y-70975000D01*
G75*
G02*
X54275000Y-70775000I0J200000D01*
G01*
X54275000Y-70225000D01*
G75*
G02*
X54475000Y-70025000I200000J0D01*
G01*
X54875000Y-70025000D01*
G75*
G02*
X55075000Y-70225000I0J-200000D01*
G01*
G37*
G36*
G01*
X56725000Y-70225000D02*
X56725000Y-70775000D01*
G75*
G02*
X56525000Y-70975000I-200000J0D01*
G01*
X56125000Y-70975000D01*
G75*
G02*
X55925000Y-70775000I0J200000D01*
G01*
X55925000Y-70225000D01*
G75*
G02*
X56125000Y-70025000I200000J0D01*
G01*
X56525000Y-70025000D01*
G75*
G02*
X56725000Y-70225000I0J-200000D01*
G01*
G37*
%TD*%
%TO.C,Q2*%
X54550000Y-74500000D03*
X56450000Y-74500000D03*
X55500000Y-76500000D03*
%TD*%
%TO.C,R1*%
G36*
G01*
X48775000Y-80775000D02*
X48775000Y-80225000D01*
G75*
G02*
X48975000Y-80025000I200000J0D01*
G01*
X49375000Y-80025000D01*
G75*
G02*
X49575000Y-80225000I0J-200000D01*
G01*
X49575000Y-80775000D01*
G75*
G02*
X49375000Y-80975000I-200000J0D01*
G01*
X48975000Y-80975000D01*
G75*
G02*
X48775000Y-80775000I0J200000D01*
G01*
G37*
G36*
G01*
X50425000Y-80775000D02*
X50425000Y-80225000D01*
G75*
G02*
X50625000Y-80025000I200000J0D01*
G01*
X51025000Y-80025000D01*
G75*
G02*
X51225000Y-80225000I0J-200000D01*
G01*
X51225000Y-80775000D01*
G75*
G02*
X51025000Y-80975000I-200000J0D01*
G01*
X50625000Y-80975000D01*
G75*
G02*
X50425000Y-80775000I0J200000D01*
G01*
G37*
%TD*%
D13*
%TO.C,D1*%
X53850000Y-80500000D03*
X57150000Y-80500000D03*
%TD*%
D14*
%TO.C,BT1*%
X68500000Y-67000000D03*
D15*
X25000000Y-67000000D03*
D14*
X76000000Y-67000000D03*
D15*
X32500000Y-67000000D03*
%TD*%
%TO.C,BT2*%
X67500000Y-83000000D03*
D14*
X24000000Y-83000000D03*
D15*
X75000000Y-83000000D03*
D14*
X31500000Y-83000000D03*
%TD*%
D16*
%TO.C,BZ1*%
X74000000Y-13000000D03*
D17*
X79000000Y-13000000D03*
%TD*%
D18*
%TO.C,D2*%
X8770000Y-5000000D03*
D19*
X6230000Y-5000000D03*
%TD*%
%TO.C,D3*%
X6230000Y-95000000D03*
D18*
X8770000Y-95000000D03*
%TD*%
D20*
%TO.C,J1*%
X21000000Y-23000000D03*
D21*
X21000000Y-25540000D03*
X21000000Y-28080000D03*
%TD*%
%TO.C,J2*%
X11000000Y-28080000D03*
X11000000Y-25540000D03*
D20*
X11000000Y-23000000D03*
%TD*%
D21*
%TO.C,J3*%
X79000000Y-28080000D03*
X79000000Y-25540000D03*
D20*
X79000000Y-23000000D03*
%TD*%
%TO.C,J4*%
X89000000Y-23000000D03*
D21*
X89000000Y-25540000D03*
X89000000Y-28080000D03*
%TD*%
D22*
%TO.C,Q3*%
X29000000Y-23000000D03*
X31000000Y-23950000D03*
X31000000Y-22050000D03*
%TD*%
%TO.C,Q4*%
X31000000Y-27050000D03*
X31000000Y-28950000D03*
X29000000Y-28000000D03*
%TD*%
D18*
%TO.C,Q5*%
X91230000Y-95000000D03*
D19*
X93770000Y-95000000D03*
%TD*%
D12*
%TO.C,Q6*%
X43000000Y-9000000D03*
X42050000Y-11000000D03*
X43950000Y-11000000D03*
%TD*%
%TO.C,Q7*%
X50950000Y-11000000D03*
X49050000Y-11000000D03*
X50000000Y-9000000D03*
%TD*%
D19*
%TO.C,Q8*%
X93770000Y-5000000D03*
D18*
X91230000Y-5000000D03*
%TD*%
D12*
%TO.C,Q9*%
X57950000Y-11000000D03*
X56050000Y-11000000D03*
X57000000Y-9000000D03*
%TD*%
%TO.C,R3*%
G36*
G01*
X73725000Y-15775000D02*
X74275000Y-15775000D01*
G75*
G02*
X74475000Y-15975000I0J-200000D01*
G01*
X74475000Y-16375000D01*
G75*
G02*
X74275000Y-16575000I-200000J0D01*
G01*
X73725000Y-16575000D01*
G75*
G02*
X73525000Y-16375000I0J200000D01*
G01*
X73525000Y-15975000D01*
G75*
G02*
X73725000Y-15775000I200000J0D01*
G01*
G37*
G36*
G01*
X73725000Y-17425000D02*
X74275000Y-17425000D01*
G75*
G02*
X74475000Y-17625000I0J-200000D01*
G01*
X74475000Y-18025000D01*
G75*
G02*
X74275000Y-18225000I-200000J0D01*
G01*
X73725000Y-18225000D01*
G75*
G02*
X73525000Y-18025000I0J200000D01*
G01*
X73525000Y-17625000D01*
G75*
G02*
X73725000Y-17425000I200000J0D01*
G01*
G37*
%TD*%
%TO.C,R5*%
G36*
G01*
X32775000Y-22275000D02*
X32775000Y-21725000D01*
G75*
G02*
X32975000Y-21525000I200000J0D01*
G01*
X33375000Y-21525000D01*
G75*
G02*
X33575000Y-21725000I0J-200000D01*
G01*
X33575000Y-22275000D01*
G75*
G02*
X33375000Y-22475000I-200000J0D01*
G01*
X32975000Y-22475000D01*
G75*
G02*
X32775000Y-22275000I0J200000D01*
G01*
G37*
G36*
G01*
X34425000Y-22275000D02*
X34425000Y-21725000D01*
G75*
G02*
X34625000Y-21525000I200000J0D01*
G01*
X35025000Y-21525000D01*
G75*
G02*
X35225000Y-21725000I0J-200000D01*
G01*
X35225000Y-22275000D01*
G75*
G02*
X35025000Y-22475000I-200000J0D01*
G01*
X34625000Y-22475000D01*
G75*
G02*
X34425000Y-22275000I0J200000D01*
G01*
G37*
%TD*%
%TO.C,R6*%
G36*
G01*
X34425000Y-27275000D02*
X34425000Y-26725000D01*
G75*
G02*
X34625000Y-26525000I200000J0D01*
G01*
X35025000Y-26525000D01*
G75*
G02*
X35225000Y-26725000I0J-200000D01*
G01*
X35225000Y-27275000D01*
G75*
G02*
X35025000Y-27475000I-200000J0D01*
G01*
X34625000Y-27475000D01*
G75*
G02*
X34425000Y-27275000I0J200000D01*
G01*
G37*
G36*
G01*
X32775000Y-27275000D02*
X32775000Y-26725000D01*
G75*
G02*
X32975000Y-26525000I200000J0D01*
G01*
X33375000Y-26525000D01*
G75*
G02*
X33575000Y-26725000I0J-200000D01*
G01*
X33575000Y-27275000D01*
G75*
G02*
X33375000Y-27475000I-200000J0D01*
G01*
X32975000Y-27475000D01*
G75*
G02*
X32775000Y-27275000I0J200000D01*
G01*
G37*
%TD*%
%TO.C,R7*%
G36*
G01*
X24775000Y-23275000D02*
X24775000Y-22725000D01*
G75*
G02*
X24975000Y-22525000I200000J0D01*
G01*
X25375000Y-22525000D01*
G75*
G02*
X25575000Y-22725000I0J-200000D01*
G01*
X25575000Y-23275000D01*
G75*
G02*
X25375000Y-23475000I-200000J0D01*
G01*
X24975000Y-23475000D01*
G75*
G02*
X24775000Y-23275000I0J200000D01*
G01*
G37*
G36*
G01*
X26425000Y-23275000D02*
X26425000Y-22725000D01*
G75*
G02*
X26625000Y-22525000I200000J0D01*
G01*
X27025000Y-22525000D01*
G75*
G02*
X27225000Y-22725000I0J-200000D01*
G01*
X27225000Y-23275000D01*
G75*
G02*
X27025000Y-23475000I-200000J0D01*
G01*
X26625000Y-23475000D01*
G75*
G02*
X26425000Y-23275000I0J200000D01*
G01*
G37*
%TD*%
%TO.C,R8*%
G36*
G01*
X26425000Y-28275000D02*
X26425000Y-27725000D01*
G75*
G02*
X26625000Y-27525000I200000J0D01*
G01*
X27025000Y-27525000D01*
G75*
G02*
X27225000Y-27725000I0J-200000D01*
G01*
X27225000Y-28275000D01*
G75*
G02*
X27025000Y-28475000I-200000J0D01*
G01*
X26625000Y-28475000D01*
G75*
G02*
X26425000Y-28275000I0J200000D01*
G01*
G37*
G36*
G01*
X24775000Y-28275000D02*
X24775000Y-27725000D01*
G75*
G02*
X24975000Y-27525000I200000J0D01*
G01*
X25375000Y-27525000D01*
G75*
G02*
X25575000Y-27725000I0J-200000D01*
G01*
X25575000Y-28275000D01*
G75*
G02*
X25375000Y-28475000I-200000J0D01*
G01*
X24975000Y-28475000D01*
G75*
G02*
X24775000Y-28275000I0J200000D01*
G01*
G37*
%TD*%
%TO.C,R9*%
G36*
G01*
X56575000Y-13725000D02*
X56575000Y-14275000D01*
G75*
G02*
X56375000Y-14475000I-200000J0D01*
G01*
X55975000Y-14475000D01*
G75*
G02*
X55775000Y-14275000I0J200000D01*
G01*
X55775000Y-13725000D01*
G75*
G02*
X55975000Y-13525000I200000J0D01*
G01*
X56375000Y-13525000D01*
G75*
G02*
X56575000Y-13725000I0J-200000D01*
G01*
G37*
G36*
G01*
X58225000Y-13725000D02*
X58225000Y-14275000D01*
G75*
G02*
X58025000Y-14475000I-200000J0D01*
G01*
X57625000Y-14475000D01*
G75*
G02*
X57425000Y-14275000I0J200000D01*
G01*
X57425000Y-13725000D01*
G75*
G02*
X57625000Y-13525000I200000J0D01*
G01*
X58025000Y-13525000D01*
G75*
G02*
X58225000Y-13725000I0J-200000D01*
G01*
G37*
%TD*%
%TO.C,R10*%
G36*
G01*
X51225000Y-13725000D02*
X51225000Y-14275000D01*
G75*
G02*
X51025000Y-14475000I-200000J0D01*
G01*
X50625000Y-14475000D01*
G75*
G02*
X50425000Y-14275000I0J200000D01*
G01*
X50425000Y-13725000D01*
G75*
G02*
X50625000Y-13525000I200000J0D01*
G01*
X51025000Y-13525000D01*
G75*
G02*
X51225000Y-13725000I0J-200000D01*
G01*
G37*
G36*
G01*
X49575000Y-13725000D02*
X49575000Y-14275000D01*
G75*
G02*
X49375000Y-14475000I-200000J0D01*
G01*
X48975000Y-14475000D01*
G75*
G02*
X48775000Y-14275000I0J200000D01*
G01*
X48775000Y-13725000D01*
G75*
G02*
X48975000Y-13525000I200000J0D01*
G01*
X49375000Y-13525000D01*
G75*
G02*
X49575000Y-13725000I0J-200000D01*
G01*
G37*
%TD*%
%TO.C,R11*%
G36*
G01*
X42575000Y-13725000D02*
X42575000Y-14275000D01*
G75*
G02*
X42375000Y-14475000I-200000J0D01*
G01*
X41975000Y-14475000D01*
G75*
G02*
X41775000Y-14275000I0J200000D01*
G01*
X41775000Y-13725000D01*
G75*
G02*
X41975000Y-13525000I200000J0D01*
G01*
X42375000Y-13525000D01*
G75*
G02*
X42575000Y-13725000I0J-200000D01*
G01*
G37*
G36*
G01*
X44225000Y-13725000D02*
X44225000Y-14275000D01*
G75*
G02*
X44025000Y-14475000I-200000J0D01*
G01*
X43625000Y-14475000D01*
G75*
G02*
X43425000Y-14275000I0J200000D01*
G01*
X43425000Y-13725000D01*
G75*
G02*
X43625000Y-13525000I200000J0D01*
G01*
X44025000Y-13525000D01*
G75*
G02*
X44225000Y-13725000I0J-200000D01*
G01*
G37*
%TD*%
%TO.C,R12*%
G36*
G01*
X76225000Y-28725000D02*
X76225000Y-29275000D01*
G75*
G02*
X76025000Y-29475000I-200000J0D01*
G01*
X75625000Y-29475000D01*
G75*
G02*
X75425000Y-29275000I0J200000D01*
G01*
X75425000Y-28725000D01*
G75*
G02*
X75625000Y-28525000I200000J0D01*
G01*
X76025000Y-28525000D01*
G75*
G02*
X76225000Y-28725000I0J-200000D01*
G01*
G37*
G36*
G01*
X74575000Y-28725000D02*
X74575000Y-29275000D01*
G75*
G02*
X74375000Y-29475000I-200000J0D01*
G01*
X73975000Y-29475000D01*
G75*
G02*
X73775000Y-29275000I0J200000D01*
G01*
X73775000Y-28725000D01*
G75*
G02*
X73975000Y-28525000I200000J0D01*
G01*
X74375000Y-28525000D01*
G75*
G02*
X74575000Y-28725000I0J-200000D01*
G01*
G37*
%TD*%
D17*
%TO.C,SW1*%
X50500000Y-98000000D03*
X50500000Y-93500000D03*
X57000000Y-98000000D03*
X57000000Y-93500000D03*
%TD*%
%TO.C,SW2*%
X21000000Y-40500000D03*
X25500000Y-40500000D03*
X21000000Y-47000000D03*
X25500000Y-47000000D03*
%TD*%
D23*
%TO.C,U1*%
X79000000Y-52780000D03*
X30740000Y-35000000D03*
X76460000Y-52780000D03*
X33280000Y-35000000D03*
X73920000Y-52780000D03*
X35820000Y-35000000D03*
X71380000Y-52780000D03*
X38360000Y-35000000D03*
X68840000Y-52780000D03*
X40900000Y-35000000D03*
X66300000Y-52780000D03*
X43440000Y-35000000D03*
X63760000Y-52780000D03*
X45980000Y-35000000D03*
X61220000Y-52780000D03*
X48520000Y-35000000D03*
X58680000Y-52780000D03*
X51060000Y-35000000D03*
X56140000Y-52780000D03*
X53600000Y-35000000D03*
X53600000Y-52780000D03*
X56140000Y-35000000D03*
X51060000Y-52780000D03*
X58680000Y-35000000D03*
X48520000Y-52780000D03*
X61220000Y-35000000D03*
X45980000Y-52780000D03*
X63760000Y-35000000D03*
X43440000Y-52780000D03*
X66300000Y-35000000D03*
X40900000Y-52780000D03*
X68840000Y-35000000D03*
X38360000Y-52780000D03*
X71380000Y-35000000D03*
X35820000Y-52780000D03*
X73920000Y-35000000D03*
X33280000Y-52780000D03*
X76460000Y-35000000D03*
X30740000Y-52780000D03*
D24*
X79000000Y-35000000D03*
%TD*%
D25*
%TO.C,H1*%
X20000000Y-3000000D03*
%TD*%
%TO.C,H2*%
X20000000Y-97000000D03*
%TD*%
%TO.C,H3*%
X80000000Y-3000000D03*
%TD*%
%TO.C,H4*%
X80000000Y-97000000D03*
%TD*%
%TO.C,R14*%
G36*
G01*
X41775000Y-6275000D02*
X41775000Y-5725000D01*
G75*
G02*
X41975000Y-5525000I200000J0D01*
G01*
X42375000Y-5525000D01*
G75*
G02*
X42575000Y-5725000I0J-200000D01*
G01*
X42575000Y-6275000D01*
G75*
G02*
X42375000Y-6475000I-200000J0D01*
G01*
X41975000Y-6475000D01*
G75*
G02*
X41775000Y-6275000I0J200000D01*
G01*
G37*
G36*
G01*
X43425000Y-6275000D02*
X43425000Y-5725000D01*
G75*
G02*
X43625000Y-5525000I200000J0D01*
G01*
X44025000Y-5525000D01*
G75*
G02*
X44225000Y-5725000I0J-200000D01*
G01*
X44225000Y-6275000D01*
G75*
G02*
X44025000Y-6475000I-200000J0D01*
G01*
X43625000Y-6475000D01*
G75*
G02*
X43425000Y-6275000I0J200000D01*
G01*
G37*
%TD*%
%TO.C,R15*%
G36*
G01*
X50425000Y-6275000D02*
X50425000Y-5725000D01*
G75*
G02*
X50625000Y-5525000I200000J0D01*
G01*
X51025000Y-5525000D01*
G75*
G02*
X51225000Y-5725000I0J-200000D01*
G01*
X51225000Y-6275000D01*
G75*
G02*
X51025000Y-6475000I-200000J0D01*
G01*
X50625000Y-6475000D01*
G75*
G02*
X50425000Y-6275000I0J200000D01*
G01*
G37*
G36*
G01*
X48775000Y-6275000D02*
X48775000Y-5725000D01*
G75*
G02*
X48975000Y-5525000I200000J0D01*
G01*
X49375000Y-5525000D01*
G75*
G02*
X49575000Y-5725000I0J-200000D01*
G01*
X49575000Y-6275000D01*
G75*
G02*
X49375000Y-6475000I-200000J0D01*
G01*
X48975000Y-6475000D01*
G75*
G02*
X48775000Y-6275000I0J200000D01*
G01*
G37*
%TD*%
%TO.C,R16*%
G36*
G01*
X57725000Y-5725000D02*
X57725000Y-6275000D01*
G75*
G02*
X57525000Y-6475000I-200000J0D01*
G01*
X57125000Y-6475000D01*
G75*
G02*
X56925000Y-6275000I0J200000D01*
G01*
X56925000Y-5725000D01*
G75*
G02*
X57125000Y-5525000I200000J0D01*
G01*
X57525000Y-5525000D01*
G75*
G02*
X57725000Y-5725000I0J-200000D01*
G01*
G37*
G36*
G01*
X56075000Y-5725000D02*
X56075000Y-6275000D01*
G75*
G02*
X55875000Y-6475000I-200000J0D01*
G01*
X55475000Y-6475000D01*
G75*
G02*
X55275000Y-6275000I0J200000D01*
G01*
X55275000Y-5725000D01*
G75*
G02*
X55475000Y-5525000I200000J0D01*
G01*
X55875000Y-5525000D01*
G75*
G02*
X56075000Y-5725000I0J-200000D01*
G01*
G37*
%TD*%
%TO.C,H5*%
X7500000Y-15000000D03*
%TD*%
%TO.C,H6*%
X7500000Y-85000000D03*
%TD*%
%TO.C,H7*%
X92500000Y-15000000D03*
%TD*%
%TO.C,H8*%
X92500000Y-85000000D03*
%TD*%
M02*
