M48
; DRILL file {KiCad (5.1.10)-1} date 10/01/22 11:39:11
; FORMAT={-:-/ absolute / metric / decimal}
; #@! TF.CreationDate,2022-10-01T11:39:11+09:00
; #@! TF.GenerationSoftware,Kicad,Pcbnew,(5.1.10)-1
FMAT,2
METRIC
T1C0.400
T2C0.762
T3C0.800
T4C0.900
T5C1.000
T6C1.100
T7C1.200
T8C2.000
T9C3.200
%
G90
G05
T1
X9.0Y-23.0
X9.0Y-29.5
X32.0Y-24.0
X32.0Y-29.0
X42.0Y-12.5
X47.0Y-67.0
X47.0Y-72.5
X48.5Y-67.0
X49.0Y-12.5
X51.5Y-67.0
X56.0Y-12.5
X68.5Y-43.0
X68.5Y-48.0
X91.0Y-23.0
X91.0Y-29.5
T2
X43.65Y-3.38
X43.65Y-18.62
X46.19Y-3.38
X46.19Y-18.62
X48.73Y-3.38
X48.73Y-18.62
X51.27Y-3.38
X51.27Y-18.62
X53.81Y-3.38
X53.81Y-18.62
X56.35Y-3.38
X56.35Y-18.62
T3
X30.74Y-35.0
X30.74Y-52.78
X33.28Y-35.0
X33.28Y-52.78
X35.82Y-35.0
X35.82Y-52.78
X38.36Y-35.0
X38.36Y-52.78
X40.9Y-35.0
X40.9Y-52.78
X43.44Y-35.0
X43.44Y-52.78
X45.98Y-35.0
X45.98Y-52.78
X48.52Y-35.0
X48.52Y-52.78
X51.06Y-35.0
X51.06Y-52.78
X53.6Y-35.0
X53.6Y-52.78
X56.14Y-35.0
X56.14Y-52.78
X58.68Y-35.0
X58.68Y-52.78
X61.22Y-35.0
X61.22Y-52.78
X63.76Y-35.0
X63.76Y-52.78
X66.3Y-35.0
X66.3Y-52.78
X68.84Y-35.0
X68.84Y-52.78
X71.38Y-35.0
X71.38Y-52.78
X73.92Y-35.0
X73.92Y-52.78
X76.46Y-35.0
X76.46Y-52.78
X79.0Y-35.0
X79.0Y-52.78
T4
X6.23Y-5.0
X6.23Y-95.0
X8.77Y-5.0
X8.77Y-95.0
X91.23Y-5.0
X91.23Y-95.0
X93.77Y-5.0
X93.77Y-95.0
T5
X11.0Y-23.0
X11.0Y-25.54
X11.0Y-28.08
X16.0Y-74.5
X21.0Y-23.0
X21.0Y-25.54
X21.0Y-28.08
X74.0Y-13.0
X79.0Y-13.0
X79.0Y-23.0
X79.0Y-25.54
X79.0Y-28.08
X84.0Y-74.5
X89.0Y-23.0
X89.0Y-25.54
X89.0Y-28.08
T6
X21.0Y-40.5
X21.0Y-47.0
X25.5Y-40.5
X25.5Y-47.0
X50.5Y-93.5
X50.5Y-98.0
X57.0Y-93.5
X57.0Y-98.0
T7
X16.0Y-24.0
X16.0Y-27.0
X84.0Y-24.0
X84.0Y-27.0
T8
X24.0Y-83.0
X31.5Y-83.0
X68.5Y-67.0
X76.0Y-67.0
T9
X7.5Y-15.0
X7.5Y-85.0
X20.0Y-3.0
X20.0Y-97.0
X80.0Y-3.0
X80.0Y-97.0
X92.5Y-15.0
X92.5Y-85.0
T8
G00X24.0Y-67.0
M15
G01X26.0Y-67.0
M16
G05
G00X31.5Y-67.0
M15
G01X33.5Y-67.0
M16
G05
G00X68.5Y-83.0
M15
G01X66.5Y-83.0
M16
G05
G00X76.0Y-83.0
M15
G01X74.0Y-83.0
M16
G05
T0
M30
