%TF.GenerationSoftware,KiCad,Pcbnew,(5.1.10)-1*%
%TF.CreationDate,2022-10-01T11:38:57+09:00*%
%TF.ProjectId,speedometer,73706565-646f-46d6-9574-65722e6b6963,rev?*%
%TF.SameCoordinates,Original*%
%TF.FileFunction,Legend,Bot*%
%TF.FilePolarity,Positive*%
%FSLAX46Y46*%
G04 Gerber Fmt 4.6, Leading zero omitted, Abs format (unit mm)*
G04 Created by KiCad (PCBNEW (5.1.10)-1) date 2022-10-01 11:38:57*
%MOMM*%
%LPD*%
G01*
G04 APERTURE LIST*
%ADD10C,0.120000*%
%ADD11C,0.150000*%
G04 APERTURE END LIST*
D10*
%TO.C,R13*%
X75237258Y-25522500D02*
X74762742Y-25522500D01*
X75237258Y-24477500D02*
X74762742Y-24477500D01*
%TO.C,Q1*%
X48420000Y-69740000D02*
X48420000Y-71200000D01*
X51580000Y-69740000D02*
X51580000Y-71900000D01*
X51580000Y-69740000D02*
X50650000Y-69740000D01*
X48420000Y-69740000D02*
X49350000Y-69740000D01*
%TO.C,R2*%
X49762742Y-76022500D02*
X50237258Y-76022500D01*
X49762742Y-74977500D02*
X50237258Y-74977500D01*
%TO.C,R4*%
X55737258Y-71022500D02*
X55262742Y-71022500D01*
X55737258Y-69977500D02*
X55262742Y-69977500D01*
%TO.C,Q2*%
X57080000Y-76260000D02*
X56150000Y-76260000D01*
X53920000Y-76260000D02*
X54850000Y-76260000D01*
X53920000Y-76260000D02*
X53920000Y-74100000D01*
X57080000Y-76260000D02*
X57080000Y-74800000D01*
%TO.C,R1*%
X49762742Y-81022500D02*
X50237258Y-81022500D01*
X49762742Y-79977500D02*
X50237258Y-79977500D01*
%TO.C,D1*%
X53250000Y-81500000D02*
X53250000Y-79500000D01*
X53250000Y-79500000D02*
X57150000Y-79500000D01*
X53250000Y-81500000D02*
X57150000Y-81500000D01*
%TO.C,Q3*%
X29240000Y-24580000D02*
X30700000Y-24580000D01*
X29240000Y-21420000D02*
X31400000Y-21420000D01*
X29240000Y-21420000D02*
X29240000Y-22350000D01*
X29240000Y-24580000D02*
X29240000Y-23650000D01*
%TO.C,Q4*%
X29240000Y-29580000D02*
X29240000Y-28650000D01*
X29240000Y-26420000D02*
X29240000Y-27350000D01*
X29240000Y-26420000D02*
X31400000Y-26420000D01*
X29240000Y-29580000D02*
X30700000Y-29580000D01*
%TO.C,Q6*%
X41420000Y-9240000D02*
X41420000Y-10700000D01*
X44580000Y-9240000D02*
X44580000Y-11400000D01*
X44580000Y-9240000D02*
X43650000Y-9240000D01*
X41420000Y-9240000D02*
X42350000Y-9240000D01*
%TO.C,Q7*%
X48420000Y-9240000D02*
X49350000Y-9240000D01*
X51580000Y-9240000D02*
X50650000Y-9240000D01*
X51580000Y-9240000D02*
X51580000Y-11400000D01*
X48420000Y-9240000D02*
X48420000Y-10700000D01*
%TO.C,Q9*%
X55420000Y-9240000D02*
X56350000Y-9240000D01*
X58580000Y-9240000D02*
X57650000Y-9240000D01*
X58580000Y-9240000D02*
X58580000Y-11400000D01*
X55420000Y-9240000D02*
X55420000Y-10700000D01*
%TO.C,R3*%
X73477500Y-16762742D02*
X73477500Y-17237258D01*
X74522500Y-16762742D02*
X74522500Y-17237258D01*
%TO.C,R5*%
X33762742Y-22522500D02*
X34237258Y-22522500D01*
X33762742Y-21477500D02*
X34237258Y-21477500D01*
%TO.C,R6*%
X33762742Y-26477500D02*
X34237258Y-26477500D01*
X33762742Y-27522500D02*
X34237258Y-27522500D01*
%TO.C,R7*%
X25762742Y-23522500D02*
X26237258Y-23522500D01*
X25762742Y-22477500D02*
X26237258Y-22477500D01*
%TO.C,R8*%
X25762742Y-27477500D02*
X26237258Y-27477500D01*
X25762742Y-28522500D02*
X26237258Y-28522500D01*
%TO.C,R9*%
X57237258Y-14522500D02*
X56762742Y-14522500D01*
X57237258Y-13477500D02*
X56762742Y-13477500D01*
%TO.C,R10*%
X50237258Y-13477500D02*
X49762742Y-13477500D01*
X50237258Y-14522500D02*
X49762742Y-14522500D01*
%TO.C,R11*%
X43237258Y-14522500D02*
X42762742Y-14522500D01*
X43237258Y-13477500D02*
X42762742Y-13477500D01*
%TO.C,R12*%
X75237258Y-28477500D02*
X74762742Y-28477500D01*
X75237258Y-29522500D02*
X74762742Y-29522500D01*
%TO.C,R14*%
X42762742Y-5477500D02*
X43237258Y-5477500D01*
X42762742Y-6522500D02*
X43237258Y-6522500D01*
%TO.C,R15*%
X49762742Y-6522500D02*
X50237258Y-6522500D01*
X49762742Y-5477500D02*
X50237258Y-5477500D01*
%TO.C,R16*%
X56737258Y-6522500D02*
X56262742Y-6522500D01*
X56737258Y-5477500D02*
X56262742Y-5477500D01*
%TO.C,R13*%
D11*
X75642857Y-24022380D02*
X75976190Y-23546190D01*
X76214285Y-24022380D02*
X76214285Y-23022380D01*
X75833333Y-23022380D01*
X75738095Y-23070000D01*
X75690476Y-23117619D01*
X75642857Y-23212857D01*
X75642857Y-23355714D01*
X75690476Y-23450952D01*
X75738095Y-23498571D01*
X75833333Y-23546190D01*
X76214285Y-23546190D01*
X74690476Y-24022380D02*
X75261904Y-24022380D01*
X74976190Y-24022380D02*
X74976190Y-23022380D01*
X75071428Y-23165238D01*
X75166666Y-23260476D01*
X75261904Y-23308095D01*
X74357142Y-23022380D02*
X73738095Y-23022380D01*
X74071428Y-23403333D01*
X73928571Y-23403333D01*
X73833333Y-23450952D01*
X73785714Y-23498571D01*
X73738095Y-23593809D01*
X73738095Y-23831904D01*
X73785714Y-23927142D01*
X73833333Y-23974761D01*
X73928571Y-24022380D01*
X74214285Y-24022380D01*
X74309523Y-23974761D01*
X74357142Y-23927142D01*
%TO.C,Q1*%
X53047619Y-70404761D02*
X53000000Y-70309523D01*
X52904761Y-70214285D01*
X52761904Y-70071428D01*
X52714285Y-69976190D01*
X52714285Y-69880952D01*
X52952380Y-69928571D02*
X52904761Y-69833333D01*
X52809523Y-69738095D01*
X52619047Y-69690476D01*
X52285714Y-69690476D01*
X52095238Y-69738095D01*
X52000000Y-69833333D01*
X51952380Y-69928571D01*
X51952380Y-70119047D01*
X52000000Y-70214285D01*
X52095238Y-70309523D01*
X52285714Y-70357142D01*
X52619047Y-70357142D01*
X52809523Y-70309523D01*
X52904761Y-70214285D01*
X52952380Y-70119047D01*
X52952380Y-69928571D01*
X52952380Y-71309523D02*
X52952380Y-70738095D01*
X52952380Y-71023809D02*
X51952380Y-71023809D01*
X52095238Y-70928571D01*
X52190476Y-70833333D01*
X52238095Y-70738095D01*
%TO.C,R2*%
X50166666Y-77382380D02*
X50500000Y-76906190D01*
X50738095Y-77382380D02*
X50738095Y-76382380D01*
X50357142Y-76382380D01*
X50261904Y-76430000D01*
X50214285Y-76477619D01*
X50166666Y-76572857D01*
X50166666Y-76715714D01*
X50214285Y-76810952D01*
X50261904Y-76858571D01*
X50357142Y-76906190D01*
X50738095Y-76906190D01*
X49785714Y-76477619D02*
X49738095Y-76430000D01*
X49642857Y-76382380D01*
X49404761Y-76382380D01*
X49309523Y-76430000D01*
X49261904Y-76477619D01*
X49214285Y-76572857D01*
X49214285Y-76668095D01*
X49261904Y-76810952D01*
X49833333Y-77382380D01*
X49214285Y-77382380D01*
%TO.C,R4*%
X55666666Y-69522380D02*
X56000000Y-69046190D01*
X56238095Y-69522380D02*
X56238095Y-68522380D01*
X55857142Y-68522380D01*
X55761904Y-68570000D01*
X55714285Y-68617619D01*
X55666666Y-68712857D01*
X55666666Y-68855714D01*
X55714285Y-68950952D01*
X55761904Y-68998571D01*
X55857142Y-69046190D01*
X56238095Y-69046190D01*
X54809523Y-68855714D02*
X54809523Y-69522380D01*
X55047619Y-68474761D02*
X55285714Y-69189047D01*
X54666666Y-69189047D01*
%TO.C,Q2*%
X53547619Y-75404761D02*
X53500000Y-75309523D01*
X53404761Y-75214285D01*
X53261904Y-75071428D01*
X53214285Y-74976190D01*
X53214285Y-74880952D01*
X53452380Y-74928571D02*
X53404761Y-74833333D01*
X53309523Y-74738095D01*
X53119047Y-74690476D01*
X52785714Y-74690476D01*
X52595238Y-74738095D01*
X52500000Y-74833333D01*
X52452380Y-74928571D01*
X52452380Y-75119047D01*
X52500000Y-75214285D01*
X52595238Y-75309523D01*
X52785714Y-75357142D01*
X53119047Y-75357142D01*
X53309523Y-75309523D01*
X53404761Y-75214285D01*
X53452380Y-75119047D01*
X53452380Y-74928571D01*
X52547619Y-75738095D02*
X52500000Y-75785714D01*
X52452380Y-75880952D01*
X52452380Y-76119047D01*
X52500000Y-76214285D01*
X52547619Y-76261904D01*
X52642857Y-76309523D01*
X52738095Y-76309523D01*
X52880952Y-76261904D01*
X53452380Y-75690476D01*
X53452380Y-76309523D01*
%TO.C,R1*%
X50166666Y-82382380D02*
X50500000Y-81906190D01*
X50738095Y-82382380D02*
X50738095Y-81382380D01*
X50357142Y-81382380D01*
X50261904Y-81430000D01*
X50214285Y-81477619D01*
X50166666Y-81572857D01*
X50166666Y-81715714D01*
X50214285Y-81810952D01*
X50261904Y-81858571D01*
X50357142Y-81906190D01*
X50738095Y-81906190D01*
X49214285Y-82382380D02*
X49785714Y-82382380D01*
X49500000Y-82382380D02*
X49500000Y-81382380D01*
X49595238Y-81525238D01*
X49690476Y-81620476D01*
X49785714Y-81668095D01*
%TO.C,D1*%
X56238095Y-82952380D02*
X56238095Y-81952380D01*
X56000000Y-81952380D01*
X55857142Y-82000000D01*
X55761904Y-82095238D01*
X55714285Y-82190476D01*
X55666666Y-82380952D01*
X55666666Y-82523809D01*
X55714285Y-82714285D01*
X55761904Y-82809523D01*
X55857142Y-82904761D01*
X56000000Y-82952380D01*
X56238095Y-82952380D01*
X54714285Y-82952380D02*
X55285714Y-82952380D01*
X55000000Y-82952380D02*
X55000000Y-81952380D01*
X55095238Y-82095238D01*
X55190476Y-82190476D01*
X55285714Y-82238095D01*
%TO.C,Q3*%
X30095238Y-21047619D02*
X30190476Y-21000000D01*
X30285714Y-20904761D01*
X30428571Y-20761904D01*
X30523809Y-20714285D01*
X30619047Y-20714285D01*
X30571428Y-20952380D02*
X30666666Y-20904761D01*
X30761904Y-20809523D01*
X30809523Y-20619047D01*
X30809523Y-20285714D01*
X30761904Y-20095238D01*
X30666666Y-20000000D01*
X30571428Y-19952380D01*
X30380952Y-19952380D01*
X30285714Y-20000000D01*
X30190476Y-20095238D01*
X30142857Y-20285714D01*
X30142857Y-20619047D01*
X30190476Y-20809523D01*
X30285714Y-20904761D01*
X30380952Y-20952380D01*
X30571428Y-20952380D01*
X29809523Y-19952380D02*
X29190476Y-19952380D01*
X29523809Y-20333333D01*
X29380952Y-20333333D01*
X29285714Y-20380952D01*
X29238095Y-20428571D01*
X29190476Y-20523809D01*
X29190476Y-20761904D01*
X29238095Y-20857142D01*
X29285714Y-20904761D01*
X29380952Y-20952380D01*
X29666666Y-20952380D01*
X29761904Y-20904761D01*
X29809523Y-20857142D01*
%TO.C,Q4*%
X30095238Y-26047619D02*
X30190476Y-26000000D01*
X30285714Y-25904761D01*
X30428571Y-25761904D01*
X30523809Y-25714285D01*
X30619047Y-25714285D01*
X30571428Y-25952380D02*
X30666666Y-25904761D01*
X30761904Y-25809523D01*
X30809523Y-25619047D01*
X30809523Y-25285714D01*
X30761904Y-25095238D01*
X30666666Y-25000000D01*
X30571428Y-24952380D01*
X30380952Y-24952380D01*
X30285714Y-25000000D01*
X30190476Y-25095238D01*
X30142857Y-25285714D01*
X30142857Y-25619047D01*
X30190476Y-25809523D01*
X30285714Y-25904761D01*
X30380952Y-25952380D01*
X30571428Y-25952380D01*
X29285714Y-25285714D02*
X29285714Y-25952380D01*
X29523809Y-24904761D02*
X29761904Y-25619047D01*
X29142857Y-25619047D01*
%TO.C,Q6*%
X46047619Y-9904761D02*
X46000000Y-9809523D01*
X45904761Y-9714285D01*
X45761904Y-9571428D01*
X45714285Y-9476190D01*
X45714285Y-9380952D01*
X45952380Y-9428571D02*
X45904761Y-9333333D01*
X45809523Y-9238095D01*
X45619047Y-9190476D01*
X45285714Y-9190476D01*
X45095238Y-9238095D01*
X45000000Y-9333333D01*
X44952380Y-9428571D01*
X44952380Y-9619047D01*
X45000000Y-9714285D01*
X45095238Y-9809523D01*
X45285714Y-9857142D01*
X45619047Y-9857142D01*
X45809523Y-9809523D01*
X45904761Y-9714285D01*
X45952380Y-9619047D01*
X45952380Y-9428571D01*
X44952380Y-10714285D02*
X44952380Y-10523809D01*
X45000000Y-10428571D01*
X45047619Y-10380952D01*
X45190476Y-10285714D01*
X45380952Y-10238095D01*
X45761904Y-10238095D01*
X45857142Y-10285714D01*
X45904761Y-10333333D01*
X45952380Y-10428571D01*
X45952380Y-10619047D01*
X45904761Y-10714285D01*
X45857142Y-10761904D01*
X45761904Y-10809523D01*
X45523809Y-10809523D01*
X45428571Y-10761904D01*
X45380952Y-10714285D01*
X45333333Y-10619047D01*
X45333333Y-10428571D01*
X45380952Y-10333333D01*
X45428571Y-10285714D01*
X45523809Y-10238095D01*
%TO.C,Q7*%
X53047619Y-9904761D02*
X53000000Y-9809523D01*
X52904761Y-9714285D01*
X52761904Y-9571428D01*
X52714285Y-9476190D01*
X52714285Y-9380952D01*
X52952380Y-9428571D02*
X52904761Y-9333333D01*
X52809523Y-9238095D01*
X52619047Y-9190476D01*
X52285714Y-9190476D01*
X52095238Y-9238095D01*
X52000000Y-9333333D01*
X51952380Y-9428571D01*
X51952380Y-9619047D01*
X52000000Y-9714285D01*
X52095238Y-9809523D01*
X52285714Y-9857142D01*
X52619047Y-9857142D01*
X52809523Y-9809523D01*
X52904761Y-9714285D01*
X52952380Y-9619047D01*
X52952380Y-9428571D01*
X51952380Y-10190476D02*
X51952380Y-10857142D01*
X52952380Y-10428571D01*
%TO.C,Q9*%
X60047619Y-9904761D02*
X60000000Y-9809523D01*
X59904761Y-9714285D01*
X59761904Y-9571428D01*
X59714285Y-9476190D01*
X59714285Y-9380952D01*
X59952380Y-9428571D02*
X59904761Y-9333333D01*
X59809523Y-9238095D01*
X59619047Y-9190476D01*
X59285714Y-9190476D01*
X59095238Y-9238095D01*
X59000000Y-9333333D01*
X58952380Y-9428571D01*
X58952380Y-9619047D01*
X59000000Y-9714285D01*
X59095238Y-9809523D01*
X59285714Y-9857142D01*
X59619047Y-9857142D01*
X59809523Y-9809523D01*
X59904761Y-9714285D01*
X59952380Y-9619047D01*
X59952380Y-9428571D01*
X59952380Y-10333333D02*
X59952380Y-10523809D01*
X59904761Y-10619047D01*
X59857142Y-10666666D01*
X59714285Y-10761904D01*
X59523809Y-10809523D01*
X59142857Y-10809523D01*
X59047619Y-10761904D01*
X59000000Y-10714285D01*
X58952380Y-10619047D01*
X58952380Y-10428571D01*
X59000000Y-10333333D01*
X59047619Y-10285714D01*
X59142857Y-10238095D01*
X59380952Y-10238095D01*
X59476190Y-10285714D01*
X59523809Y-10333333D01*
X59571428Y-10428571D01*
X59571428Y-10619047D01*
X59523809Y-10714285D01*
X59476190Y-10761904D01*
X59380952Y-10809523D01*
%TO.C,R3*%
X73022380Y-16833333D02*
X72546190Y-16500000D01*
X73022380Y-16261904D02*
X72022380Y-16261904D01*
X72022380Y-16642857D01*
X72070000Y-16738095D01*
X72117619Y-16785714D01*
X72212857Y-16833333D01*
X72355714Y-16833333D01*
X72450952Y-16785714D01*
X72498571Y-16738095D01*
X72546190Y-16642857D01*
X72546190Y-16261904D01*
X72022380Y-17166666D02*
X72022380Y-17785714D01*
X72403333Y-17452380D01*
X72403333Y-17595238D01*
X72450952Y-17690476D01*
X72498571Y-17738095D01*
X72593809Y-17785714D01*
X72831904Y-17785714D01*
X72927142Y-17738095D01*
X72974761Y-17690476D01*
X73022380Y-17595238D01*
X73022380Y-17309523D01*
X72974761Y-17214285D01*
X72927142Y-17166666D01*
%TO.C,R5*%
X34166666Y-23882380D02*
X34500000Y-23406190D01*
X34738095Y-23882380D02*
X34738095Y-22882380D01*
X34357142Y-22882380D01*
X34261904Y-22930000D01*
X34214285Y-22977619D01*
X34166666Y-23072857D01*
X34166666Y-23215714D01*
X34214285Y-23310952D01*
X34261904Y-23358571D01*
X34357142Y-23406190D01*
X34738095Y-23406190D01*
X33261904Y-22882380D02*
X33738095Y-22882380D01*
X33785714Y-23358571D01*
X33738095Y-23310952D01*
X33642857Y-23263333D01*
X33404761Y-23263333D01*
X33309523Y-23310952D01*
X33261904Y-23358571D01*
X33214285Y-23453809D01*
X33214285Y-23691904D01*
X33261904Y-23787142D01*
X33309523Y-23834761D01*
X33404761Y-23882380D01*
X33642857Y-23882380D01*
X33738095Y-23834761D01*
X33785714Y-23787142D01*
%TO.C,R6*%
X34166666Y-28882380D02*
X34500000Y-28406190D01*
X34738095Y-28882380D02*
X34738095Y-27882380D01*
X34357142Y-27882380D01*
X34261904Y-27930000D01*
X34214285Y-27977619D01*
X34166666Y-28072857D01*
X34166666Y-28215714D01*
X34214285Y-28310952D01*
X34261904Y-28358571D01*
X34357142Y-28406190D01*
X34738095Y-28406190D01*
X33309523Y-27882380D02*
X33500000Y-27882380D01*
X33595238Y-27930000D01*
X33642857Y-27977619D01*
X33738095Y-28120476D01*
X33785714Y-28310952D01*
X33785714Y-28691904D01*
X33738095Y-28787142D01*
X33690476Y-28834761D01*
X33595238Y-28882380D01*
X33404761Y-28882380D01*
X33309523Y-28834761D01*
X33261904Y-28787142D01*
X33214285Y-28691904D01*
X33214285Y-28453809D01*
X33261904Y-28358571D01*
X33309523Y-28310952D01*
X33404761Y-28263333D01*
X33595238Y-28263333D01*
X33690476Y-28310952D01*
X33738095Y-28358571D01*
X33785714Y-28453809D01*
%TO.C,R7*%
X26166666Y-24882380D02*
X26500000Y-24406190D01*
X26738095Y-24882380D02*
X26738095Y-23882380D01*
X26357142Y-23882380D01*
X26261904Y-23930000D01*
X26214285Y-23977619D01*
X26166666Y-24072857D01*
X26166666Y-24215714D01*
X26214285Y-24310952D01*
X26261904Y-24358571D01*
X26357142Y-24406190D01*
X26738095Y-24406190D01*
X25833333Y-23882380D02*
X25166666Y-23882380D01*
X25595238Y-24882380D01*
%TO.C,R8*%
X26166666Y-29882380D02*
X26500000Y-29406190D01*
X26738095Y-29882380D02*
X26738095Y-28882380D01*
X26357142Y-28882380D01*
X26261904Y-28930000D01*
X26214285Y-28977619D01*
X26166666Y-29072857D01*
X26166666Y-29215714D01*
X26214285Y-29310952D01*
X26261904Y-29358571D01*
X26357142Y-29406190D01*
X26738095Y-29406190D01*
X25595238Y-29310952D02*
X25690476Y-29263333D01*
X25738095Y-29215714D01*
X25785714Y-29120476D01*
X25785714Y-29072857D01*
X25738095Y-28977619D01*
X25690476Y-28930000D01*
X25595238Y-28882380D01*
X25404761Y-28882380D01*
X25309523Y-28930000D01*
X25261904Y-28977619D01*
X25214285Y-29072857D01*
X25214285Y-29120476D01*
X25261904Y-29215714D01*
X25309523Y-29263333D01*
X25404761Y-29310952D01*
X25595238Y-29310952D01*
X25690476Y-29358571D01*
X25738095Y-29406190D01*
X25785714Y-29501428D01*
X25785714Y-29691904D01*
X25738095Y-29787142D01*
X25690476Y-29834761D01*
X25595238Y-29882380D01*
X25404761Y-29882380D01*
X25309523Y-29834761D01*
X25261904Y-29787142D01*
X25214285Y-29691904D01*
X25214285Y-29501428D01*
X25261904Y-29406190D01*
X25309523Y-29358571D01*
X25404761Y-29310952D01*
%TO.C,R9*%
X57166666Y-13022380D02*
X57500000Y-12546190D01*
X57738095Y-13022380D02*
X57738095Y-12022380D01*
X57357142Y-12022380D01*
X57261904Y-12070000D01*
X57214285Y-12117619D01*
X57166666Y-12212857D01*
X57166666Y-12355714D01*
X57214285Y-12450952D01*
X57261904Y-12498571D01*
X57357142Y-12546190D01*
X57738095Y-12546190D01*
X56690476Y-13022380D02*
X56500000Y-13022380D01*
X56404761Y-12974761D01*
X56357142Y-12927142D01*
X56261904Y-12784285D01*
X56214285Y-12593809D01*
X56214285Y-12212857D01*
X56261904Y-12117619D01*
X56309523Y-12070000D01*
X56404761Y-12022380D01*
X56595238Y-12022380D01*
X56690476Y-12070000D01*
X56738095Y-12117619D01*
X56785714Y-12212857D01*
X56785714Y-12450952D01*
X56738095Y-12546190D01*
X56690476Y-12593809D01*
X56595238Y-12641428D01*
X56404761Y-12641428D01*
X56309523Y-12593809D01*
X56261904Y-12546190D01*
X56214285Y-12450952D01*
%TO.C,R10*%
X50642857Y-13022380D02*
X50976190Y-12546190D01*
X51214285Y-13022380D02*
X51214285Y-12022380D01*
X50833333Y-12022380D01*
X50738095Y-12070000D01*
X50690476Y-12117619D01*
X50642857Y-12212857D01*
X50642857Y-12355714D01*
X50690476Y-12450952D01*
X50738095Y-12498571D01*
X50833333Y-12546190D01*
X51214285Y-12546190D01*
X49690476Y-13022380D02*
X50261904Y-13022380D01*
X49976190Y-13022380D02*
X49976190Y-12022380D01*
X50071428Y-12165238D01*
X50166666Y-12260476D01*
X50261904Y-12308095D01*
X49071428Y-12022380D02*
X48976190Y-12022380D01*
X48880952Y-12070000D01*
X48833333Y-12117619D01*
X48785714Y-12212857D01*
X48738095Y-12403333D01*
X48738095Y-12641428D01*
X48785714Y-12831904D01*
X48833333Y-12927142D01*
X48880952Y-12974761D01*
X48976190Y-13022380D01*
X49071428Y-13022380D01*
X49166666Y-12974761D01*
X49214285Y-12927142D01*
X49261904Y-12831904D01*
X49309523Y-12641428D01*
X49309523Y-12403333D01*
X49261904Y-12212857D01*
X49214285Y-12117619D01*
X49166666Y-12070000D01*
X49071428Y-12022380D01*
%TO.C,R11*%
X43642857Y-13022380D02*
X43976190Y-12546190D01*
X44214285Y-13022380D02*
X44214285Y-12022380D01*
X43833333Y-12022380D01*
X43738095Y-12070000D01*
X43690476Y-12117619D01*
X43642857Y-12212857D01*
X43642857Y-12355714D01*
X43690476Y-12450952D01*
X43738095Y-12498571D01*
X43833333Y-12546190D01*
X44214285Y-12546190D01*
X42690476Y-13022380D02*
X43261904Y-13022380D01*
X42976190Y-13022380D02*
X42976190Y-12022380D01*
X43071428Y-12165238D01*
X43166666Y-12260476D01*
X43261904Y-12308095D01*
X41738095Y-13022380D02*
X42309523Y-13022380D01*
X42023809Y-13022380D02*
X42023809Y-12022380D01*
X42119047Y-12165238D01*
X42214285Y-12260476D01*
X42309523Y-12308095D01*
%TO.C,R12*%
X75642857Y-28022380D02*
X75976190Y-27546190D01*
X76214285Y-28022380D02*
X76214285Y-27022380D01*
X75833333Y-27022380D01*
X75738095Y-27070000D01*
X75690476Y-27117619D01*
X75642857Y-27212857D01*
X75642857Y-27355714D01*
X75690476Y-27450952D01*
X75738095Y-27498571D01*
X75833333Y-27546190D01*
X76214285Y-27546190D01*
X74690476Y-28022380D02*
X75261904Y-28022380D01*
X74976190Y-28022380D02*
X74976190Y-27022380D01*
X75071428Y-27165238D01*
X75166666Y-27260476D01*
X75261904Y-27308095D01*
X74309523Y-27117619D02*
X74261904Y-27070000D01*
X74166666Y-27022380D01*
X73928571Y-27022380D01*
X73833333Y-27070000D01*
X73785714Y-27117619D01*
X73738095Y-27212857D01*
X73738095Y-27308095D01*
X73785714Y-27450952D01*
X74357142Y-28022380D01*
X73738095Y-28022380D01*
%TO.C,R14*%
X43642857Y-7882380D02*
X43976190Y-7406190D01*
X44214285Y-7882380D02*
X44214285Y-6882380D01*
X43833333Y-6882380D01*
X43738095Y-6930000D01*
X43690476Y-6977619D01*
X43642857Y-7072857D01*
X43642857Y-7215714D01*
X43690476Y-7310952D01*
X43738095Y-7358571D01*
X43833333Y-7406190D01*
X44214285Y-7406190D01*
X42690476Y-7882380D02*
X43261904Y-7882380D01*
X42976190Y-7882380D02*
X42976190Y-6882380D01*
X43071428Y-7025238D01*
X43166666Y-7120476D01*
X43261904Y-7168095D01*
X41833333Y-7215714D02*
X41833333Y-7882380D01*
X42071428Y-6834761D02*
X42309523Y-7549047D01*
X41690476Y-7549047D01*
%TO.C,R15*%
X50642857Y-7882380D02*
X50976190Y-7406190D01*
X51214285Y-7882380D02*
X51214285Y-6882380D01*
X50833333Y-6882380D01*
X50738095Y-6930000D01*
X50690476Y-6977619D01*
X50642857Y-7072857D01*
X50642857Y-7215714D01*
X50690476Y-7310952D01*
X50738095Y-7358571D01*
X50833333Y-7406190D01*
X51214285Y-7406190D01*
X49690476Y-7882380D02*
X50261904Y-7882380D01*
X49976190Y-7882380D02*
X49976190Y-6882380D01*
X50071428Y-7025238D01*
X50166666Y-7120476D01*
X50261904Y-7168095D01*
X48785714Y-6882380D02*
X49261904Y-6882380D01*
X49309523Y-7358571D01*
X49261904Y-7310952D01*
X49166666Y-7263333D01*
X48928571Y-7263333D01*
X48833333Y-7310952D01*
X48785714Y-7358571D01*
X48738095Y-7453809D01*
X48738095Y-7691904D01*
X48785714Y-7787142D01*
X48833333Y-7834761D01*
X48928571Y-7882380D01*
X49166666Y-7882380D01*
X49261904Y-7834761D01*
X49309523Y-7787142D01*
%TO.C,R16*%
X57142857Y-7952380D02*
X57476190Y-7476190D01*
X57714285Y-7952380D02*
X57714285Y-6952380D01*
X57333333Y-6952380D01*
X57238095Y-7000000D01*
X57190476Y-7047619D01*
X57142857Y-7142857D01*
X57142857Y-7285714D01*
X57190476Y-7380952D01*
X57238095Y-7428571D01*
X57333333Y-7476190D01*
X57714285Y-7476190D01*
X56190476Y-7952380D02*
X56761904Y-7952380D01*
X56476190Y-7952380D02*
X56476190Y-6952380D01*
X56571428Y-7095238D01*
X56666666Y-7190476D01*
X56761904Y-7238095D01*
X55333333Y-6952380D02*
X55523809Y-6952380D01*
X55619047Y-7000000D01*
X55666666Y-7047619D01*
X55761904Y-7190476D01*
X55809523Y-7380952D01*
X55809523Y-7761904D01*
X55761904Y-7857142D01*
X55714285Y-7904761D01*
X55619047Y-7952380D01*
X55428571Y-7952380D01*
X55333333Y-7904761D01*
X55285714Y-7857142D01*
X55238095Y-7761904D01*
X55238095Y-7523809D01*
X55285714Y-7428571D01*
X55333333Y-7380952D01*
X55428571Y-7333333D01*
X55619047Y-7333333D01*
X55714285Y-7380952D01*
X55761904Y-7428571D01*
X55809523Y-7523809D01*
%TD*%
M02*
